<?xml version="1.0" encoding="iso-8859-1"?>
<!-- Generator: Adobe Illustrator 19.0.0, SVG Export Plug-In . SVG Version: 6.00 Build 0)  -->
<svg version="1.1" id="Capa_1" xmlns="http://www.w3.org/2000/svg" xmlns:xlink="http://www.w3.org/1999/xlink" x="0px" y="0px"
	 viewBox="0 0 223.136 223.136" style="enable-background:new 0 0 223.136 223.136;" xml:space="preserve">
<path d="M207.967,6.568H50.411c-8.823,0-16.275,7.045-16.275,15.868v33.132H16.972c-5.741,0-10.619,2.424-13.734,6.475
	c-3.116,4.051-4.021,9.433-2.548,14.982l32.9,123.999c0.385,1.453,0.905,2.909,1.527,4.117c2.013,6.536,8.106,11.427,15.294,11.427
	h157.556c8.823,0,15.169-7.381,15.169-16.204V22.436C223.136,13.613,216.79,6.568,207.967,6.568z M59.136,66.568h56v34h-56V66.568z
	 M59.136,121.568h56v34h-56V121.568z M198.136,197.568h-139v-21h139V197.568z M198.136,155.568h-61v-89h61V155.568z M198.136,45.568
	h-139v-21h139V45.568z"/>
<g>
</g>
<g>
</g>
<g>
</g>
<g>
</g>
<g>
</g>
<g>
</g>
<g>
</g>
<g>
</g>
<g>
</g>
<g>
</g>
<g>
</g>
<g>
</g>
<g>
</g>
<g>
</g>
<g>
</g>
</svg>
