<?xml version="1.0" encoding="iso-8859-1"?>
<!-- Generator: Adobe Illustrator 16.0.0, SVG Export Plug-In . SVG Version: 6.00 Build 0)  -->
<!DOCTYPE svg PUBLIC "-//W3C//DTD SVG 1.1//EN" "http://www.w3.org/Graphics/SVG/1.1/DTD/svg11.dtd">
<svg version="1.1" id="Capa_1" xmlns="http://www.w3.org/2000/svg" xmlns:xlink="http://www.w3.org/1999/xlink" x="0px" y="0px"
	 width="44.68px" height="44.679px" viewBox="0 0 44.68 44.679" style="enable-background:new 0 0 44.68 44.679;"
	 xml:space="preserve">
<g>
	<path d="M1.84,26.903v0.021h7.45c0.17-1.844,1.704-3.291,3.591-3.291s3.421,1.447,3.591,3.291h11.109
		c0.17-1.844,1.704-3.291,3.591-3.291s3.421,1.447,3.591,3.291h8.077v-0.021c1.126-1.008,1.84-2.467,1.84-4.099v-7.871
		c0-3.037-2.462-5.5-5.5-5.5h-6.174C32.244,5.226,27.758,1.98,22.34,1.98s-9.904,3.246-10.666,7.455H5.5c-3.038,0-5.5,2.463-5.5,5.5
		v7.872C0,24.437,0.714,25.898,1.84,26.903z M22.34,6.982c2.4,0,4.566,1.055,5.413,2.455H16.928
		C17.773,8.034,19.939,6.982,22.34,6.982z M42.84,28.923V37.2c0,3.037-2.462,5.5-5.5,5.5h-30c-3.038,0-5.5-2.463-5.5-5.5v-8.276
		h7.45c0.17,1.844,1.704,3.293,3.591,3.293s3.421-1.449,3.591-3.293h11.109c0.17,1.844,1.704,3.293,3.591,3.293
		s3.421-1.449,3.591-3.293H42.84z"/>
</g>
<g>
</g>
<g>
</g>
<g>
</g>
<g>
</g>
<g>
</g>
<g>
</g>
<g>
</g>
<g>
</g>
<g>
</g>
<g>
</g>
<g>
</g>
<g>
</g>
<g>
</g>
<g>
</g>
<g>
</g>
</svg>
